<svg width="40" height="40" viewBox="0 0 40 40" fill="none" xmlns="http://www.w3.org/2000/svg">
<path d="M14.2353 15.3902H13.552V13.8687H14.2353C14.6357 13.8687 14.9129 13.8936 15.0679 13.9434C15.2228 13.992 15.3405 14.0746 15.4231 14.1911C15.5045 14.3076 15.5452 14.4468 15.5452 14.6119C15.5452 14.7692 15.5023 14.9095 15.4152 15.0294C15.3292 15.1493 15.2002 15.2409 15.0283 15.2997C14.8563 15.3597 14.595 15.3902 14.2353 15.3902ZM15.1493 16.4083C14.9774 16.3427 14.7127 16.3099 14.3597 16.3099H13.552V17.6617C13.5554 17.8529 13.5622 17.9649 13.5747 17.9966C13.5905 18.0384 13.6131 18.0678 13.6482 18.0837C13.681 18.0995 13.7749 18.1085 13.9265 18.1085H14.3812C14.6459 18.1085 14.8654 18.0837 15.0396 18.035C15.2138 17.9864 15.362 17.8834 15.4842 17.7285C15.6063 17.5735 15.6674 17.3868 15.6674 17.1696C15.6674 16.9841 15.6244 16.8291 15.5385 16.699C15.4514 16.569 15.3224 16.4728 15.1493 16.4083ZM21.7387 15.9864C21.7387 20.1063 18.3982 23.4468 14.2771 23.4468C10.1572 23.4468 6.81787 20.1052 6.81787 15.9864C6.81787 11.8653 10.1572 8.52597 14.2771 8.52597C18.3982 8.52483 21.7387 11.8653 21.7387 15.9864ZM17.2873 17.3348C17.2873 17.0565 17.2217 16.8054 17.0905 16.5814C16.9604 16.3552 16.7839 16.1809 16.5577 16.0542C16.4027 15.9649 16.1799 15.8834 15.8869 15.8088C16.1595 15.716 16.379 15.5984 16.5452 15.457C16.7104 15.3156 16.8371 15.1515 16.9265 14.9671C17.0136 14.7828 17.0577 14.5871 17.0577 14.38C17.0577 14.0972 16.9751 13.8371 16.8077 13.5995C16.6414 13.3631 16.4027 13.1798 16.0928 13.0542C15.9717 13.0056 15.8292 12.9683 15.6742 12.9389V11.8371H14.6165V12.8642H13.9378V11.8371H12.8801V12.8642H11.267V13.7273H11.5158C11.681 13.7273 11.7907 13.7432 11.8495 13.7726C11.9084 13.802 11.948 13.8438 11.9717 13.8925C11.9955 13.9434 12.0079 14.061 12.0079 14.2466V17.7273C12.0079 17.9094 11.9955 18.026 11.9717 18.078C11.948 18.1312 11.9072 18.1719 11.8495 18.199C11.7907 18.2273 11.681 18.242 11.5158 18.242H11.2692V19.1052H12.8824V20.1323H13.94V19.1052H14.5396C14.5667 19.1052 14.5928 19.1052 14.6176 19.1052V20.1334H15.6753V19.0158C15.8518 18.983 16.0079 18.9389 16.1414 18.8857C16.5057 18.7398 16.7873 18.5282 16.9876 18.2488C17.1867 17.9705 17.2873 17.6651 17.2873 17.3348ZM40 23.5791C40 27.9411 36.448 31.4932 32.086 31.4932H23.9163V35.1391H17.5532V31.4932H7.91516C3.5509 31.4932 0 27.9411 0 23.5791C0 21.0678 1.21946 18.6945 3.22851 17.2115C3.17986 16.7929 3.15611 16.3868 3.15611 15.9864C3.15611 9.85289 8.14593 4.86194 14.2783 4.86194C18.9502 4.86194 23.0464 7.74655 24.6663 12.026C25.5543 11.69 26.4977 11.5158 27.448 11.5158C30.5147 11.5158 33.3247 13.3303 34.6176 16.0871C37.8145 17.164 40 20.1651 40 23.5791ZM37.7376 23.5791C37.7376 21.0067 35.9966 18.7579 33.5023 18.1131C33.1482 18.0214 32.8609 17.7635 32.7274 17.4208C31.8959 15.242 29.7749 13.7771 27.4468 13.7771C26.4333 13.7771 25.4355 14.0554 24.552 14.5803C24.2455 14.7647 23.8676 14.7918 23.5362 14.6527C23.2048 14.5135 22.9593 14.2262 22.8756 13.8778C21.905 9.9004 18.3688 7.12212 14.276 7.12212C9.3914 7.12212 5.41629 11.0972 5.41629 15.9841C5.41629 16.4818 5.46493 16.9954 5.56448 17.5542C5.64706 18.018 5.43439 18.4841 5.02941 18.7251C3.29751 19.7579 2.26244 21.5712 2.26244 23.5769C2.26244 26.6945 4.79864 29.2307 7.91516 29.2307H17.5543V28.6233H15.1912L20.7353 23.0814L26.276 28.6255H23.914V29.2307H32.0848C35.2014 29.2307 37.7376 26.6945 37.7376 23.5791ZM36.6063 23.0135C36.2952 23.0135 36.0407 23.2669 36.0407 23.5791C36.0407 25.7601 34.267 27.5339 32.086 27.5339H28.6731C28.3609 27.5339 28.1075 27.7884 28.1075 28.0995C28.1075 28.4117 28.3609 28.6651 28.6731 28.6651H32.086C34.8903 28.6651 37.1719 26.3812 37.1719 23.5791C37.1719 23.2658 36.9197 23.0135 36.6063 23.0135ZM31.1425 18.026L31.5588 19.1176C31.6244 19.2884 31.7681 19.4174 31.9468 19.4637L33.0781 19.7567C33.6629 19.9072 34.2115 20.1957 34.6674 20.5882C34.7771 20.6798 34.9072 20.7262 35.0385 20.7262C35.1968 20.7262 35.3541 20.6572 35.4672 20.5294C35.6719 20.2929 35.6437 19.9355 35.4072 19.7307C34.819 19.2251 34.112 18.8552 33.3586 18.6606L32.5102 18.4411L32.1991 17.6221C31.4502 15.6617 29.5396 14.3438 27.4468 14.3438C26.5362 14.3438 25.6346 14.5938 24.8439 15.0678C24.5769 15.2285 24.4898 15.5746 24.6471 15.8438C24.8088 16.1119 25.155 16.1979 25.4253 16.0395C26.0419 15.6696 26.7421 15.4751 27.4468 15.4751C29.0735 15.4751 30.5611 16.5011 31.1425 18.026Z" fill="#36D3C8"/>
</svg>
