<svg width="40" height="40" viewBox="0 0 40 40" fill="none" xmlns="http://www.w3.org/2000/svg">
<path d="M17.0449 16.9634C16.1143 16.9634 15.3796 17.7797 15.3796 18.7756C15.3796 19.7715 16.1306 20.5879 17.0449 20.5879C17.9755 20.5879 18.7102 19.7715 18.7102 18.7756C18.7265 17.7797 17.9755 16.9634 17.0449 16.9634ZM23.0041 16.9634C22.0735 16.9634 21.3388 17.7797 21.3388 18.7756C21.3388 19.7715 22.0898 20.5879 23.0041 20.5879C23.9347 20.5879 24.6694 19.7715 24.6694 18.7756C24.6694 17.7797 23.9347 16.9634 23.0041 16.9634Z" fill="white"/>
<path d="M30.9388 3.26538H9.06123C7.21634 3.26538 5.71429 4.76742 5.71429 6.62865V28.7021C5.71429 30.5633 7.21634 32.0654 9.06123 32.0654H27.5755L26.7102 29.045L28.8 30.9878L30.7755 32.8164L34.2857 35.9184V6.62865C34.2857 4.76742 32.7837 3.26538 30.9388 3.26538ZM24.6367 24.5878C24.6367 24.5878 24.049 23.8858 23.5592 23.2654C25.698 22.6613 26.5143 21.3225 26.5143 21.3225C25.8449 21.7633 25.2082 22.0735 24.6367 22.2858C23.8204 22.6286 23.0367 22.8572 22.2694 22.9878C20.702 23.2817 19.2653 23.2001 18.0408 22.9715C17.1102 22.7919 16.3102 22.5307 15.6408 22.2695C15.2653 22.1225 14.8572 21.9429 14.449 21.7144C14.4 21.6817 14.351 21.6654 14.302 21.6327C14.2694 21.6164 14.2531 21.6001 14.2367 21.5837C13.9429 21.4205 13.7796 21.3062 13.7796 21.3062C13.7796 21.3062 14.5633 22.6123 16.6367 23.2327C16.1469 23.8531 15.5429 24.5878 15.5429 24.5878C11.9347 24.4735 10.5633 22.1062 10.5633 22.1062C10.5633 16.8491 12.9143 12.5878 12.9143 12.5878C15.2653 10.8246 17.502 10.8735 17.502 10.8735L17.6653 11.0695C14.7265 11.9184 13.3714 13.2082 13.3714 13.2082C13.3714 13.2082 13.7306 13.0123 14.3347 12.7348C16.0816 11.9674 17.4694 11.7552 18.0408 11.7062C18.1388 11.6899 18.2204 11.6735 18.3184 11.6735C19.3143 11.5429 20.4408 11.5103 21.6163 11.6409C23.1674 11.8205 24.8327 12.2776 26.5306 13.2082C26.5306 13.2082 25.2408 11.9837 22.4653 11.1348L22.6939 10.8735C22.6939 10.8735 24.9306 10.8246 27.2816 12.5878C27.2816 12.5878 29.6327 16.8491 29.6327 22.1062C29.6327 22.1062 28.2449 24.4735 24.6367 24.5878Z" fill="white"/>
</svg>
