<svg width="40" height="40" viewBox="0 0 40 40" fill="none" xmlns="http://www.w3.org/2000/svg">
<path fill-rule="evenodd" clip-rule="evenodd" d="M20 5C11.7125 5 5 11.7125 5 20C5 26.6375 9.29375 32.2437 15.2562 34.2313C16.0062 34.3625 16.2875 33.9125 16.2875 33.5187C16.2875 33.1625 16.2688 31.9813 16.2688 30.725C12.5 31.4188 11.525 29.8062 11.225 28.9625C11.0563 28.5312 10.325 27.2 9.6875 26.8438C9.1625 26.5625 8.4125 25.8687 9.66875 25.85C10.85 25.8312 11.6937 26.9375 11.975 27.3875C13.325 29.6562 15.4813 29.0188 16.3438 28.625C16.475 27.65 16.8687 26.9937 17.3 26.6187C13.9625 26.2437 10.475 24.95 10.475 19.2125C10.475 17.5813 11.0563 16.2312 12.0125 15.1812C11.8625 14.8062 11.3375 13.2688 12.1625 11.2062C12.1625 11.2062 13.4187 10.8125 16.2875 12.7438C17.4875 12.4062 18.7625 12.2375 20.0375 12.2375C21.3125 12.2375 22.5875 12.4062 23.7875 12.7438C26.6562 10.7938 27.9125 11.2062 27.9125 11.2062C28.7375 13.2688 28.2125 14.8062 28.0625 15.1812C29.0188 16.2312 29.6 17.5625 29.6 19.2125C29.6 24.9688 26.0938 26.2437 22.7563 26.6187C23.3 27.0875 23.7688 27.9875 23.7688 29.3938C23.7688 31.4 23.75 33.0125 23.75 33.5187C23.75 33.9125 24.0312 34.3813 24.7812 34.2313C30.7063 32.2437 35 26.6187 35 20C35 11.7125 28.2875 5 20 5Z" fill="white"/>
</svg>
