<svg width="40" height="40" viewBox="0 0 40 40" fill="none" xmlns="http://www.w3.org/2000/svg">
<path d="M20.5544 12.2727C20.5544 11.9663 20.3059 11.7179 19.9995 11.7179C19.6932 11.7179 19.4447 11.9663 19.4447 12.2727C19.4447 12.8668 19.7824 13.8271 21.8745 13.9868V15.3324C21.8745 15.6778 22.1541 15.9574 22.4995 15.9574C22.845 15.9574 23.1245 15.6778 23.1245 15.3324V13.9735C24.6758 13.7908 25.5544 12.9084 25.5544 11.4835C25.5544 10.433 25.1097 9.20271 23.1245 8.99071V6.55546C23.5914 6.62646 23.8114 6.77015 23.9076 6.86677C24.0193 6.97852 24.0285 7.08346 24.0291 7.10546C24.0095 7.40146 24.2275 7.66271 24.5253 7.69384C24.836 7.7219 25.1027 7.50402 25.1344 7.19946C25.1405 7.14146 25.1808 6.62083 24.7511 6.14415C24.402 5.75702 23.8519 5.52583 23.1245 5.44234V4.0824C23.1245 3.7369 22.845 3.4574 22.4995 3.4574C22.1541 3.4574 21.8745 3.7369 21.8745 4.0824V5.43321C19.742 5.63065 19.4447 6.8524 19.4447 7.93127C19.4447 9.19202 20.2646 9.89565 21.8745 10.0356V12.8737C21.1779 12.81 20.5544 12.6312 20.5544 12.2727ZM24.4447 11.4835C24.4447 11.8246 24.4436 12.6613 23.1245 12.8595V10.1042C24.0585 10.2204 24.4447 10.634 24.4447 11.4835ZM20.5544 7.93127C20.5544 7.3184 20.5554 6.68752 21.8745 6.54321V8.92733C20.5554 8.79765 20.5544 8.24546 20.5544 7.93127Z" fill="#2E86DE" stroke="#2E86DE" stroke-width="0.3"/>
<path d="M38.1166 24.4175C37.5661 23.6143 36.5687 22.7653 35.5611 23.0247C34.4624 23.3067 33.4774 24.4114 32.3366 25.6901C30.9853 27.205 29.4545 28.9219 27.5344 29.4791C23.7978 30.5631 19.0938 29.7746 17.6296 29.4804C17.4733 29.2308 17.5062 28.4233 17.6497 28.2682C17.9683 28.1523 18.7197 28.2389 19.5119 28.3311C20.8748 28.4886 22.7425 28.7046 24.8671 28.2951C25.345 28.2035 25.8492 27.7464 25.8333 26.7374C25.8113 25.3983 24.8018 23.3573 22.6247 23.0125C21.5877 22.8483 18.8338 22.4113 15.1527 22.1995C13.6818 22.1086 11.2581 23.9671 10.4457 24.6165H1.87456C1.52362 24.6165 1.23856 24.9015 1.23856 25.2524V33.3134C1.23856 33.6643 1.52362 33.9494 1.87456 33.9494H8.22893C9.17925 34.6885 13.6153 38.057 16.4436 38.7669C18.2973 39.2319 20.6422 39.7196 22.9903 39.7196C24.7182 39.7196 26.4479 39.4553 27.9848 38.7241C31.6518 36.9786 35.6466 31.2571 37.7926 28.1834C38.0464 27.8208 38.2698 27.4998 38.4596 27.2349C39.0572 26.3993 38.6745 25.2317 38.1166 24.4175ZM2.51056 25.8885H7.44099V32.6774H2.51056V25.8885ZM37.4257 26.4951C37.2334 26.7637 37.007 27.0884 36.7507 27.4558C34.8195 30.2208 30.8016 35.9751 27.4385 37.5767C24.1829 39.1233 19.7811 38.2933 16.7531 37.5339C13.9058 36.8193 8.89418 32.8556 8.84418 32.8159C8.83331 32.8073 8.81949 32.8039 8.80818 32.796V25.8885H10.6709C10.8181 25.8885 10.9609 25.8372 11.0744 25.7438C12.2572 24.7721 14.283 23.4507 15.0795 23.469C18.6971 23.6771 21.4058 24.1068 22.4257 24.2686C23.5799 24.4511 24.117 25.3086 24.3342 25.8036C24.5979 26.4042 24.5857 26.8901 24.5296 27.0646C22.6357 27.4137 20.9877 27.2215 19.6577 27.0683C18.5884 26.9449 17.8176 26.8553 17.2157 27.0731C16.4754 27.3423 16.2068 28.3183 16.2691 29.1666C16.3319 30.0151 16.7196 30.5931 17.3061 30.7127C18.7581 31.0087 23.8131 31.8827 27.8884 30.6999C30.1601 30.0413 31.8929 28.0979 33.2851 26.5366C34.2457 25.4594 35.1534 24.442 35.8766 24.2564C36.0902 24.2033 36.6182 24.4791 37.0674 25.1359C37.4751 25.731 37.5691 26.2943 37.4257 26.4951Z" fill="#2E86DE" stroke="#2E86DE" stroke-width="0.3"/>
<path d="M22.4995 19.0303C27.6772 19.0303 31.8745 14.833 31.8745 9.65527C31.8745 4.47765 27.6772 0.280273 22.4995 0.280273C17.3219 0.280273 13.1245 4.47765 13.1245 9.65527C13.1245 14.833 17.3219 19.0303 22.4995 19.0303ZM22.4995 1.53027C26.9797 1.53027 30.6245 5.17515 30.6245 9.65527C30.6245 14.1355 26.9797 17.7803 22.4995 17.7803C18.0194 17.7803 14.3745 14.1355 14.3745 9.65527C14.3745 5.17515 18.0194 1.53027 22.4995 1.53027Z" fill="#2E86DE" stroke="#2E86DE" stroke-width="0.3"/>
</svg>
