<svg width="40" height="40" viewBox="0 0 40 40" fill="none" xmlns="http://www.w3.org/2000/svg">
<g clip-path="url(#clip0)">
<path d="M18.4092 21.7013C20.1873 21.7013 21.8289 21.072 23.0318 19.9293C24.2753 18.7479 24.9599 17.0885 24.9599 15.2563C24.9599 11.225 18.9867 6.33352 18.7324 6.12731C18.544 5.97449 18.2742 5.97449 18.0858 6.12731C17.8316 6.33362 11.8582 11.225 11.8582 15.2563C11.8582 17.0885 12.5429 18.7479 13.7862 19.9293C14.9894 21.072 16.6312 21.7013 18.4092 21.7013ZM13.899 15.6652C14.0428 15.6198 14.1968 15.6916 14.2584 15.8324C14.6245 16.6691 15.1348 17.41 15.7752 18.0344C16.3614 18.6062 17.0426 19.0687 17.8 19.4094C17.938 19.4715 18.0092 19.6297 17.9659 19.778C17.9274 19.9094 17.8099 19.9961 17.6806 19.9961C17.6637 19.9961 17.6465 19.9944 17.6294 19.9914C16.6461 19.8168 15.762 19.3692 15.0731 18.6968C14.3492 17.991 13.872 17.0619 13.6928 16.0104C13.6668 15.8585 13.7553 15.7104 13.899 15.6652Z" fill="#36D3C8"/>
<path d="M39.6409 24.563C36.961 24.0437 34.4145 23.6793 31.8562 23.4491C31.3475 23.4033 30.8323 23.3801 30.3249 23.3801C27.001 23.3801 24.2869 24.3383 21.6619 25.2649C20.9223 25.526 19.8419 25.7871 18.698 26.0636C17.0284 26.4671 15.3019 26.8844 14.4878 27.3442C13.7504 27.7608 13.4727 28.2694 13.6625 28.8561C13.9394 29.7119 15.0829 30.0935 17.3701 30.0935C18.899 30.0935 20.7874 29.9237 22.7866 29.744C23.1079 29.7151 23.4345 29.6858 23.7638 29.6567C21.0297 30.3928 18.6971 30.7656 16.8192 30.7656C14.6625 30.7656 13.2556 30.2645 12.8578 29.3543C12.5768 28.7115 12.8429 27.9026 13.6072 27.0768L13.7206 26.9542L13.5585 26.9142C13.4744 26.8935 5.13623 24.8347 3.53755 24.484C3.18503 24.4067 2.82699 24.3675 2.47338 24.3675C1.20299 24.3675 0.170542 24.8721 0.0185171 25.5675C-0.054983 25.9035 0.0288623 26.5622 1.41866 27.2006L13.6071 32.3337C14.014 32.4841 14.4319 32.6581 14.8744 32.8421C16.2276 33.4053 17.627 33.9877 18.9272 33.9876C19.4682 33.9876 19.986 33.9312 20.51 33.8154C21.4535 33.6066 23.8365 32.9007 26.3591 32.1535C28.8149 31.4261 31.3544 30.6739 32.3704 30.4452C33.1677 30.2658 33.9895 30.1785 34.8827 30.1785C36.4225 30.1785 37.9336 30.4374 39.4749 30.7259L39.9999 30.8241V24.6324L39.6409 24.563Z" fill="#36D3C8"/>
</g>
<defs>
<clipPath id="clip0">
<rect width="40" height="40" fill="white"/>
</clipPath>
</defs>
</svg>
