<svg width="40" height="40" viewBox="0 0 40 40" fill="none" xmlns="http://www.w3.org/2000/svg">
<g clip-path="url(#clip0)">
<path d="M26.2147 0H13.7853C11.363 0 9.39844 1.96461 9.39844 4.38684V35.6131C9.39844 38.0354 11.363 39.9999 13.7853 39.9999H26.2146C28.6369 39.9999 30.6014 38.0354 30.6014 35.6131V4.38684C30.6015 1.96461 28.6377 0 26.2147 0ZM24.2114 2.28483C24.3758 2.28483 24.5083 2.41794 24.5083 2.58172C24.5083 2.74618 24.3752 2.87853 24.2114 2.87853C24.0469 2.87853 23.9145 2.74541 23.9145 2.58172C23.9145 2.41794 24.0476 2.28483 24.2114 2.28483ZM24.2114 3.26748C24.3758 3.26748 24.5083 3.40059 24.5083 3.56429C24.5083 3.72807 24.3752 3.86118 24.2114 3.86118C24.0469 3.86118 23.9145 3.72807 23.9145 3.56429C23.9145 3.40059 24.0476 3.26748 24.2114 3.26748ZM16.9 2.86897H23.1476C23.3684 2.86897 23.5468 3.04735 23.5468 3.2674C23.5468 3.48821 23.3684 3.66659 23.1476 3.66659H16.9C16.6792 3.66659 16.5008 3.48821 16.5008 3.2674C16.5008 3.04735 16.6792 2.86897 16.9 2.86897ZM21.7057 35.7652C21.7057 36.5724 21.0506 37.2275 20.2435 37.2275H19.6951C18.8878 37.2275 18.2328 36.5724 18.2328 35.7652V35.1562C18.2328 34.3489 18.8878 33.6939 19.6951 33.6939H20.2435C21.0506 33.6939 21.7057 34.3489 21.7057 35.1562V35.7652ZM28.4688 31.8046H11.1042V8.59086H28.4688V31.8046Z" fill="#36D3C8"/>
<path d="M17.4798 3.39036C17.5476 3.39036 17.6026 3.33535 17.6026 3.26749C17.6026 3.19963 17.5476 3.14462 17.4798 3.14462C17.4119 3.14462 17.3569 3.19963 17.3569 3.26749C17.3569 3.33535 17.4119 3.39036 17.4798 3.39036Z" fill="white"/>
<path d="M17.8388 3.39036C17.9066 3.39036 17.9616 3.33535 17.9616 3.26749C17.9616 3.19963 17.9066 3.14462 17.8388 3.14462C17.7709 3.14462 17.7159 3.19963 17.7159 3.26749C17.7159 3.33535 17.7709 3.39036 17.8388 3.39036Z" fill="white"/>
<path d="M18.1977 3.39036C18.2656 3.39036 18.3206 3.33535 18.3206 3.26749C18.3206 3.19963 18.2656 3.14462 18.1977 3.14462C18.1299 3.14462 18.0749 3.19963 18.0749 3.26749C18.0749 3.33535 18.1299 3.39036 18.1977 3.39036Z" fill="white"/>
<path d="M18.556 3.39036C18.6239 3.39036 18.6789 3.33535 18.6789 3.26749C18.6789 3.19963 18.6239 3.14462 18.556 3.14462C18.4881 3.14462 18.4331 3.19963 18.4331 3.26749C18.4331 3.33535 18.4881 3.39036 18.556 3.39036Z" fill="white"/>
<path d="M18.915 3.39036C18.9828 3.39036 19.0379 3.33535 19.0379 3.26749C19.0379 3.19963 18.9828 3.14462 18.915 3.14462C18.8471 3.14462 18.7921 3.19963 18.7921 3.26749C18.7921 3.33535 18.8471 3.39036 18.915 3.39036Z" fill="white"/>
<path d="M19.2733 3.39036C19.3411 3.39036 19.3961 3.33535 19.3961 3.26749C19.3961 3.19963 19.3411 3.14462 19.2733 3.14462C19.2054 3.14462 19.1504 3.19963 19.1504 3.26749C19.1504 3.33535 19.2054 3.39036 19.2733 3.39036Z" fill="white"/>
<path d="M19.6315 3.39036C19.6993 3.39036 19.7543 3.33535 19.7543 3.26749C19.7543 3.19963 19.6993 3.14462 19.6315 3.14462C19.5636 3.14462 19.5086 3.19963 19.5086 3.26749C19.5086 3.33535 19.5636 3.39036 19.6315 3.39036Z" fill="white"/>
<path d="M19.9905 3.39036C20.0584 3.39036 20.1134 3.33535 20.1134 3.26749C20.1134 3.19963 20.0584 3.14462 19.9905 3.14462C19.9227 3.14462 19.8677 3.19963 19.8677 3.26749C19.8677 3.33535 19.9227 3.39036 19.9905 3.39036Z" fill="white"/>
<path d="M20.3488 3.39036C20.4166 3.39036 20.4716 3.33535 20.4716 3.26749C20.4716 3.19963 20.4166 3.14462 20.3488 3.14462C20.2809 3.14462 20.2259 3.19963 20.2259 3.26749C20.2259 3.33535 20.2809 3.39036 20.3488 3.39036Z" fill="white"/>
<path d="M20.7084 3.39036C20.7763 3.39036 20.8313 3.33535 20.8313 3.26749C20.8313 3.19963 20.7763 3.14462 20.7084 3.14462C20.6406 3.14462 20.5855 3.19963 20.5855 3.26749C20.5855 3.33535 20.6406 3.39036 20.7084 3.39036Z" fill="white"/>
<path d="M21.0668 3.39036C21.1346 3.39036 21.1896 3.33535 21.1896 3.26749C21.1896 3.19963 21.1346 3.14462 21.0668 3.14462C20.9989 3.14462 20.9439 3.19963 20.9439 3.26749C20.9439 3.33535 20.9989 3.39036 21.0668 3.39036Z" fill="white"/>
<path d="M21.4257 3.39036C21.4935 3.39036 21.5485 3.33535 21.5485 3.26749C21.5485 3.19963 21.4935 3.14462 21.4257 3.14462C21.3578 3.14462 21.3028 3.19963 21.3028 3.26749C21.3028 3.33535 21.3578 3.39036 21.4257 3.39036Z" fill="white"/>
<path d="M21.784 3.39036C21.8519 3.39036 21.9069 3.33535 21.9069 3.26749C21.9069 3.19963 21.8519 3.14462 21.784 3.14462C21.7162 3.14462 21.6612 3.19963 21.6612 3.26749C21.6612 3.33535 21.7162 3.39036 21.784 3.39036Z" fill="white"/>
<path d="M22.1429 3.39036C22.2108 3.39036 22.2658 3.33535 22.2658 3.26749C22.2658 3.19963 22.2108 3.14462 22.1429 3.14462C22.0751 3.14462 22.0201 3.19963 22.0201 3.26749C22.0201 3.33535 22.0751 3.39036 22.1429 3.39036Z" fill="white"/>
</g>
<defs>
<clipPath id="clip0">
<rect width="40" height="39.9999" fill="white"/>
</clipPath>
</defs>
</svg>
