<svg width="40" height="40" viewBox="0 0 40 40" fill="none" xmlns="http://www.w3.org/2000/svg">
<path d="M12.9923 21.2099C14.1962 21.2099 15.1721 22.1859 15.1721 23.3895C15.1721 24.5931 14.1962 25.5691 12.9923 25.5691C11.7898 25.5691 10.814 24.5929 10.814 23.3895C10.814 22.1856 11.79 21.2099 12.9923 21.2099Z" fill="#FC823E"/>
<path d="M14.1363 28.0515C14.9098 28.0515 15.5377 28.6779 15.5377 29.4528C15.5377 30.2282 14.9098 30.854 14.1363 30.854C13.3614 30.854 12.7333 30.228 12.7333 29.4528C12.7333 28.6779 13.3614 28.0515 14.1363 28.0515Z" fill="#FC823E"/>
<path d="M16.1483 33.8545C16.1952 32.0645 19.7196 29.7842 19.7002 24.8102C19.6907 22.3076 17.2643 18.1484 13.1429 17.6311C9.0209 17.1119 5.93737 18.0185 4.59016 20.5592C3.24074 23.099 3.13835 25.3282 3.24207 25.7441C3.3471 26.1586 3.78553 26.937 3.78553 26.937C3.78553 26.937 1.71274 30.124 1.84178 30.6424C1.97192 31.1605 3.39489 31.4404 3.39489 31.4404C3.39489 31.4404 3.52393 31.8013 3.26387 32.4991C3.00336 33.2005 3.7481 34.0111 3.96984 34.2956C4.19027 34.5774 3.65781 35.4627 3.8386 35.9537C4.02071 36.4463 4.87819 37.0429 5.86162 36.9125C6.84726 36.7826 8.11014 36.55 8.55121 36.4719C9.54279 38.8058 7.15224 39.9998 7.15224 39.9998H19.7209C19.7185 40 16.0723 37.0682 16.1483 33.8545ZM10.6537 25.5667L9.99575 25.9765L9.35363 24.9474L10.0092 24.5365C9.85019 24.1259 9.78127 23.698 9.7958 23.275L9.04535 23.1017L9.3162 21.9183L10.0704 22.092C10.243 21.7049 10.4947 21.3482 10.8154 21.0483L10.4056 20.3923L11.4332 19.7495L11.8428 20.4061C12.2551 20.2483 12.6827 20.1778 13.1081 20.1941L13.2808 19.441L14.4639 19.7151L14.2906 20.4665C14.6762 20.6407 15.0303 20.8913 15.3318 21.2125L15.9862 20.8012L16.6294 21.8318L15.9739 22.2391C16.1331 22.6489 16.2016 23.0801 16.1862 23.5033L16.9393 23.678L16.6658 24.8613L15.9138 24.6878C15.7427 25.0756 15.4896 25.4299 15.1692 25.7287L15.5775 26.3854L14.5472 27.029L14.1387 26.3724C13.7278 26.5303 13.2975 26.6014 12.876 26.5849L12.7027 27.3375L11.5204 27.064L11.6926 26.3123C11.3082 26.1403 10.9514 25.8873 10.6537 25.5667ZM15.611 30.8833C15.4229 31.0786 15.1904 31.2376 14.9323 31.347L15.0336 31.8339L14.2697 31.9944L14.1673 31.5073C13.885 31.5122 13.6106 31.4578 13.3598 31.3543L13.0863 31.7703L12.4345 31.3437L12.7056 30.9291C12.5107 30.7386 12.3513 30.5098 12.2418 30.2469L11.7541 30.3506L11.5927 29.5867L12.0818 29.4828C12.078 29.2011 12.13 28.9263 12.2348 28.6755L11.8177 28.4033L12.2454 27.7502L12.6587 28.0213C12.8505 27.826 13.0808 27.667 13.342 27.558L13.2409 27.0707L14.0037 26.9114L14.1059 27.3996C14.3893 27.3948 14.6628 27.4479 14.9131 27.55L15.1855 27.1356L15.84 27.5624L15.5676 27.9786C15.7629 28.1671 15.9208 28.3961 16.0318 28.6563L16.516 28.5553L16.6785 29.3194L16.1919 29.4231C16.1969 29.705 16.1439 29.9796 16.0402 30.2315L16.4546 30.505L16.0256 31.157L15.611 30.8833Z" fill="#FC823E"/>
<path d="M37.184 10.3287C37.8576 10.3287 38.3984 9.59675 38.3984 8.69479C38.3984 7.79393 37.8576 7.06021 37.184 7.06021C37.1225 7.06021 37.0697 7.09588 37.0072 7.10799C36.9561 6.87237 36.8673 6.65063 36.7933 6.4236C36.862 6.40246 36.938 6.40378 36.9981 6.36943C37.5819 6.03383 37.6817 5.12835 37.232 4.34795C36.783 3.5671 35.9438 3.202 35.3631 3.53891C35.3034 3.57327 35.2704 3.63646 35.2211 3.68183C35.0586 3.5039 34.891 3.33654 34.7122 3.17381C34.7584 3.12427 34.8199 3.09168 34.8547 3.03046C35.1929 2.44912 34.8291 1.6141 34.0469 1.16334C33.2685 0.712143 32.3626 0.814538 32.0252 1.39522C31.9893 1.45974 31.9913 1.53263 31.9708 1.60133C31.7436 1.52778 31.5225 1.43992 31.284 1.38927C31.2975 1.33026 31.3312 1.27609 31.3312 1.21289C31.3312 0.543025 30.5996 0 29.6997 0C28.7959 0 28.0649 0.542805 28.0649 1.21289C28.0649 1.27609 28.1007 1.33048 28.1124 1.38927C27.8739 1.44102 27.6535 1.5291 27.4245 1.60133C27.4027 1.53505 27.4058 1.46084 27.3708 1.39632C27.0358 0.818061 26.129 0.711922 25.3473 1.16312C24.5682 1.61388 24.2049 2.45 24.5425 3.03134C24.5753 3.09146 24.6391 3.12405 24.6823 3.17359C24.5037 3.3361 24.3379 3.50368 24.1767 3.68271C24.1256 3.63646 24.0921 3.57304 24.034 3.53869C23.452 3.20442 22.617 3.56468 22.1645 4.34773C21.7163 5.12923 21.8223 6.03339 22.3979 6.36921C22.4598 6.40466 22.534 6.40224 22.6029 6.42338C22.528 6.65041 22.4437 6.87215 22.3908 7.10777C22.3272 7.09566 22.2739 7.05999 22.2122 7.05999C21.5415 7.05999 20.9965 7.79393 21 8.69457C21 9.59521 21.5424 10.3274 22.2122 10.3285C22.2737 10.3285 22.327 10.2935 22.3908 10.2814C22.4413 10.517 22.528 10.7394 22.6029 10.9675C22.5342 10.9887 22.46 10.9845 22.3979 11.0208C21.8152 11.3575 21.7113 12.2617 22.1645 13.0443C22.6159 13.8227 23.4522 14.1856 24.034 13.8511C24.0924 13.817 24.1256 13.7547 24.1738 13.7078C24.3379 13.887 24.5057 14.0548 24.6825 14.2164C24.6385 14.2669 24.5757 14.2999 24.5427 14.3596C24.2053 14.9429 24.5656 15.7783 25.3475 16.2284C26.127 16.679 27.0332 16.5742 27.371 15.993C27.406 15.9314 27.4031 15.8572 27.4247 15.7891C27.6537 15.8644 27.8728 15.9525 28.1126 16.0032C28.101 16.0633 28.0651 16.1175 28.0651 16.1807C28.0651 16.8505 28.7959 17.3946 29.6999 17.3946C30.5999 17.3946 31.3314 16.8518 31.3314 16.1807C31.3314 16.1175 31.2977 16.0633 31.2843 16.0032C31.5216 15.9525 31.7438 15.8644 31.9711 15.7891C31.9927 15.8561 31.9896 15.9303 32.0255 15.993C32.3617 16.5755 33.2676 16.6803 34.0472 16.2284C34.8304 15.7759 35.1944 14.9416 34.8549 14.3596C34.8201 14.2999 34.7584 14.2669 34.7124 14.2173C34.8919 14.0559 35.0586 13.8868 35.222 13.7089C35.2704 13.7558 35.3032 13.8179 35.3631 13.8522C35.944 14.1876 36.781 13.8262 37.232 13.0454C37.6803 12.2628 37.5799 11.3573 36.9981 11.0217C36.9382 10.9843 36.8623 10.9884 36.7933 10.9686C36.8673 10.7392 36.9559 10.5181 37.0072 10.2825C37.0712 10.2926 37.1236 10.3287 37.184 10.3287ZM30.2861 12.6695V13.9942H29.0144V12.7604C28.1437 12.7226 27.2972 12.4894 26.807 12.2018L27.195 10.683C27.7385 10.9812 28.5077 11.2542 29.3506 11.2542C30.091 11.2542 30.5957 10.968 30.5957 10.4494C30.5957 9.95612 30.1795 9.64387 29.2223 9.31797C27.8301 8.85048 26.883 8.20175 26.883 6.94064C26.883 5.79821 27.687 4.90132 29.0771 4.62827V3.39446H30.3482V4.53688C31.2197 4.57784 31.805 4.75907 32.2318 4.96628L31.8546 6.43351C31.5161 6.29191 30.9196 5.99178 29.9833 5.99178C29.1386 5.99178 28.8653 6.35577 28.8653 6.71977C28.8653 7.14807 29.3242 7.4198 30.4283 7.83533C31.9717 8.38166 32.5958 9.09644 32.5958 10.2646C32.5978 11.4216 31.7788 12.4092 30.2861 12.6695Z" fill="#FC823E"/>
<path d="M19.7546 17.9456L18.563 19.1349L19.1221 19.694L20.3128 18.5045L21.5043 19.694L22.9731 15.2855L18.563 16.7549L19.7546 17.9456Z" fill="#FC823E"/>
</svg>
