<svg width="40" height="40" viewBox="0 0 40 40" fill="none" xmlns="http://www.w3.org/2000/svg">
<rect x="10" y="10" width="20" height="18" fill="#21252B"/>
<path d="M22.7975 24.185C22.9037 24.29 22.9037 24.4613 22.7975 24.5675C22.2162 25.145 21.305 25.4263 20.0087 25.4263L19.9987 25.4238L19.9888 25.4263C18.6938 25.4263 17.7812 25.145 17.2 24.5662C17.0938 24.4613 17.0938 24.29 17.2 24.185C17.305 24.08 17.4775 24.08 17.5838 24.185C18.0575 24.6562 18.8438 24.8862 19.9888 24.8862L19.9987 24.8888L20.0087 24.8862C21.1525 24.8862 21.9387 24.6562 22.4137 24.185C22.52 24.08 22.6925 24.08 22.7975 24.185ZM18.4975 21.1625C18.4975 20.5288 17.98 20.0138 17.345 20.0138C16.7088 20.0138 16.1912 20.5288 16.1912 21.1625C16.1912 21.795 16.7088 22.31 17.345 22.31C17.98 22.3112 18.4975 21.7963 18.4975 21.1625ZM35 20C35 28.2838 28.2838 35 20 35C11.7163 35 5 28.2838 5 20C5 11.7163 11.7163 5 20 5C28.2838 5 35 11.7163 35 20ZM28.75 19.8388C28.75 18.775 27.8813 17.91 26.8125 17.91C26.2913 17.91 25.8187 18.1187 25.47 18.4537C24.15 17.585 22.3638 17.0325 20.3875 16.9613L21.4688 13.5562L24.3975 14.2425L24.3938 14.285C24.3938 15.155 25.105 15.8625 25.9788 15.8625C26.8525 15.8625 27.5625 15.155 27.5625 14.285C27.5625 13.415 26.8525 12.7075 25.9788 12.7075C25.3075 12.7075 24.7362 13.1262 24.505 13.7125L21.3488 12.9725C21.2113 12.9387 21.07 13.0187 21.0275 13.1537L19.8213 16.9513C17.7513 16.9762 15.8775 17.5337 14.4987 18.4275C14.1525 18.1087 13.6937 17.9087 13.1862 17.9087C12.1187 17.91 11.25 18.775 11.25 19.8388C11.25 20.5463 11.6388 21.1588 12.21 21.495C12.1725 21.7 12.1475 21.9088 12.1475 22.12C12.1475 24.9713 15.6537 27.2913 19.9637 27.2913C24.2738 27.2913 27.78 24.9713 27.78 22.12C27.78 21.92 27.7588 21.7237 27.725 21.53C28.3325 21.2038 28.75 20.5725 28.75 19.8388ZM22.66 20.015C22.0238 20.015 21.5075 20.53 21.5075 21.1637C21.5075 21.7962 22.025 22.3113 22.66 22.3113C23.295 22.3113 23.8125 21.7962 23.8125 21.1637C23.8125 20.53 23.2962 20.015 22.66 20.015Z" fill="white"/>
</svg>
