<svg width="40" height="40" viewBox="0 0 40 40" fill="none" xmlns="http://www.w3.org/2000/svg">
<g clip-path="url(#clip0)">
<path d="M39.3507 24H37.1155C35.9432 21.5234 34.3254 20.0468 32.1918 19.4922L33.325 15.5156C33.4032 15.25 33.3016 14.9687 33.0827 14.7968C32.8639 14.6328 32.5591 14.6172 32.3246 14.7656L27.4087 17.8359C24.1966 15.2265 19.0697 14.664 15.2557 14.664C12.3093 14.664 9.55828 15.25 7.22928 16.2656L6.0257 16.8437C5.9241 16.8984 5.81469 16.9609 5.71308 17.0156C5.6193 16.2578 5.27542 15.5312 4.78305 14.9922C3.75141 13.8593 2.28992 13.6328 1.05508 14.4218C0.476742 14.789 0.0937852 15.3906 0.0390772 16.0156C-0.0312617 16.7656 0.382956 17.4843 1.03164 17.7734C1.52401 17.9843 2.10235 17.9531 2.77448 17.6797C3.07147 17.5547 3.21214 17.2109 3.09491 16.914C2.96987 16.6172 2.62599 16.4765 2.329 16.5937C2.07891 16.6953 1.73503 16.7968 1.50838 16.6953C1.32081 16.6093 1.18795 16.3593 1.21139 16.1172C1.23484 15.8515 1.42241 15.5781 1.68813 15.4062C2.80574 14.6953 3.68107 15.5078 3.92335 15.7734C4.39228 16.289 4.67363 17.0468 4.53295 17.75C1.73503 19.6953 0 22.375 0 25.3359C0 27.539 0.687758 29.4453 2.05546 30.9843L4.01713 39.4843C4.08747 39.789 4.3532 40 4.66582 40H10.6681C11.0354 40 11.3324 39.7031 11.3324 39.3359V36.9375C14.185 37.8437 17.1627 37.9922 20.3827 37.3984L22.1333 39.7343C22.2584 39.9062 22.4538 40 22.6648 40H27.3306C27.6979 40 27.9949 39.7031 27.9949 39.3359V35.9218C35.0132 34.9375 40.0229 31.375 39.9994 27.3359V24.6718C40.015 24.2968 39.7181 24 39.3507 24ZM21.2971 19.2187C21.1955 19.4843 20.9454 19.6484 20.6718 19.6484C20.5937 19.6484 20.5155 19.6328 20.4374 19.6093C17.1158 18.3593 14.0053 18.3593 10.9182 19.6015C10.5743 19.7422 10.1913 19.5781 10.0507 19.2343C9.90998 18.8906 10.0819 18.5078 10.418 18.3672C13.8255 16.9922 17.2565 16.9922 20.9063 18.3593C21.2502 18.4922 21.4299 18.875 21.2971 19.2187ZM32.5435 23.7343C32.4106 23.9062 32.2152 24 32.012 24C31.8714 24 31.7307 23.9531 31.6134 23.8672C31.3165 23.6484 31.2539 23.2265 31.4806 22.9297C31.6994 22.6328 32.1136 22.5703 32.4106 22.7968L32.4184 22.8047C32.7076 23.0234 32.7701 23.4375 32.5435 23.7343Z" fill="#2E86DE"/>
<path d="M15.3417 13.3281C19.015 13.3281 22.0083 10.3359 22.0083 6.66406C22.0083 2.99219 19.015 0 15.3417 0C11.6606 0 8.67514 2.99219 8.67514 6.66406C8.67514 10.3359 11.6685 13.3281 15.3417 13.3281ZM15.2714 7.32812C13.5442 7.23438 12.7861 6.26562 12.8017 5.32812C12.8173 4.49219 13.466 3.64062 14.6852 3.39844V3.32812C14.6852 2.96094 14.9822 2.66406 15.3495 2.66406C15.7169 2.66406 16.0138 2.96094 16.0138 3.32812V3.36719C16.8735 3.46094 17.4675 3.74219 17.8661 4.25C18.0927 4.53906 18.0459 4.96094 17.7567 5.1875C17.4675 5.41406 17.0455 5.36719 16.8188 5.07812C16.7407 4.97656 16.4906 4.66406 15.3417 4.66406C14.5133 4.67188 14.1303 5.07031 14.1225 5.35156C14.1147 5.64844 14.5445 5.96094 15.3652 6C15.3964 6 15.4277 6.00781 15.4589 6.00781C17.9599 6.49219 18.0459 7.8125 18.0146 8.20312C17.9364 9.07031 17.1471 9.72656 16.006 9.92969V10C16.006 10.3672 15.709 10.6641 15.3417 10.6641C14.9744 10.6641 14.6774 10.3672 14.6774 10V9.96875C13.8646 9.89844 13.38 9.66406 12.8642 9.13281C12.6063 8.86719 12.6141 8.44531 12.8798 8.1875C13.1456 7.92969 13.5676 7.9375 13.8255 8.20312C14.1381 8.52344 14.3179 8.66406 15.3495 8.66406C16.2092 8.64844 16.6781 8.28906 16.6938 8.08594C16.7094 7.9375 16.3655 7.54688 15.2714 7.32812Z" fill="#2E86DE"/>
</g>
<defs>
<clipPath id="clip0">
<rect width="40" height="40" fill="white"/>
</clipPath>
</defs>
</svg>
