<svg width="40" height="40" viewBox="0 0 40 42" fill="none" xmlns="http://www.w3.org/2000/svg">
<path d="M32.3333 18.3333H29.6667V13C29.6667 7.8 25.5333 3.66667 20.3333 3.66667C15.1333 3.66667 11 7.8 11 13V18.3333H8.33334V13C8.33334 6.33333 13.6667 1 20.3333 1C27 1 32.3333 6.33333 32.3333 13V18.3333Z" fill="#2E86DE" stroke="#2E86DE" stroke-width="0.5"/>
<path d="M30.6664 41H9.33304C7.06637 41 5.33304 39.2666 5.33304 37V21C5.33304 18.7333 7.06637 17 9.33304 17H30.6664C32.933 17 34.6664 18.7333 34.6664 21V37C34.6664 39.2666 32.933 41 30.6664 41ZM9.33304 19.6666C8.53304 19.6666 7.99971 20.2 7.99971 21V37C7.99971 37.8 8.53304 38.3333 9.33304 38.3333H30.6664C31.4664 38.3333 31.9997 37.8 31.9997 37V21C31.9997 20.2 31.4664 19.6666 30.6664 19.6666H9.33304Z" fill="#2E86DE" stroke="#2E86DE" stroke-width="0.5"/>
<path d="M20 27.6666C21.4728 27.6666 22.6667 26.4727 22.6667 25C22.6667 23.5272 21.4728 22.3333 20 22.3333C18.5273 22.3333 17.3334 23.5272 17.3334 25C17.3334 26.4727 18.5273 27.6666 20 27.6666Z" fill="#2E86DE" stroke="#2E86DE" stroke-width="0.5"/>
<path d="M20.667 25H19.3336L18.0003 33H22.0003L20.667 25Z" fill="#2E86DE" stroke="#2E86DE" stroke-width="0.5"/>
</svg>
