<svg width="40" height="40" viewBox="0 0 40 40" fill="none" xmlns="http://www.w3.org/2000/svg">
<g clip-path="url(#clip0)">
<path d="M39.8643 17.8257C39.6687 17.6067 39.3331 17.5903 39.1158 17.7854L38.0757 18.7189L32.4354 13.1263C32.2276 12.9206 31.8926 12.9211 31.6858 13.1295C31.4796 13.3373 31.4807 13.6728 31.689 13.879L37.2858 19.4282L34.515 21.9149L25.2997 12.5808L34.4599 3.91522C34.6724 3.71378 34.682 3.37822 34.4805 3.16565C34.2786 2.95255 33.9435 2.9446 33.731 3.14445L24.1775 12.1827C24.0741 12.2808 24.0142 12.416 24.0115 12.5585C24.0089 12.7011 24.0645 12.8384 24.1642 12.9402L25.0129 13.8001L23.1432 15.7561L19.5369 15.3718C19.3774 15.3527 19.221 15.41 19.1075 15.5224L17.6418 16.9754L14.9171 14.284L15.8352 13.3542C15.9349 13.253 15.9905 13.1152 15.9879 12.9726C15.9852 12.83 15.9259 12.6948 15.822 12.5967L6.26898 3.55899C6.05693 3.35861 5.72085 3.36656 5.51941 3.58019C5.31797 3.79276 5.32751 4.12832 5.54008 4.32976L11.9867 10.4275L2.54606 19.6911L0.884187 18.1999C0.666845 18.0048 0.33129 18.0223 0.135682 18.2402C-0.0599265 18.4581 -0.041903 18.7931 0.175969 18.9887L5.15311 23.4559C5.25383 23.5465 5.38105 23.5916 5.50722 23.5916C5.64451 23.5916 5.78128 23.5386 5.88465 23.4341L6.78636 22.5208L11.7434 27.4099L10.8326 28.336C10.6285 28.5438 10.6296 28.8767 10.8358 29.0824L12.6944 30.9409C12.6944 30.9409 12.6954 30.9415 12.6954 30.942C12.6954 30.9425 12.6959 30.9431 12.6965 30.9431L14.5555 32.7809L16.412 34.6379L18.2705 36.4964C18.3739 36.5998 18.5096 36.6517 18.6453 36.6517C18.781 36.6517 18.9167 36.5998 19.0201 36.4964L19.9817 35.5348L20.9592 36.4991C21.062 36.6008 21.1967 36.6517 21.3313 36.6517C21.467 36.6517 21.6027 36.5998 21.7061 36.4964L23.1899 35.0127L23.4088 35.2316C23.5122 35.335 23.6479 35.3869 23.7836 35.3869C23.9193 35.3869 24.055 35.335 24.1584 35.2316L25.6421 33.7478L25.8611 33.9668C25.9644 34.0701 26.1001 34.1221 26.2358 34.1221C26.3715 34.1221 26.5073 34.0701 26.6106 33.9668L28.0944 32.483L28.3128 32.7014C28.4162 32.8048 28.5519 32.8567 28.6876 32.8567C28.8233 32.8567 28.959 32.8048 29.0624 32.7014L30.9209 30.8429C31.1282 30.6356 31.1282 30.3006 30.9209 30.0933L28.1612 27.3336L33.1489 22.0416L34.1158 23.0212C34.2192 23.1262 34.356 23.1786 34.4933 23.1786C34.6194 23.1786 34.7467 23.1336 34.8474 23.0429L39.8245 18.5758C40.0419 18.3786 40.0599 18.0435 39.8643 17.8257ZM13.0538 18.1209C13.0538 19.4001 12.0132 20.4401 10.7346 20.4401C10.2257 20.4401 9.73691 20.2726 9.33827 19.9715L12.5852 16.7241C12.8863 17.1233 13.0538 17.612 13.0538 18.1209ZM13.3368 15.9724L14.2216 15.0877L14.6997 15.56L13.7254 16.5576C13.6173 16.3504 13.4874 16.1542 13.3368 15.9724ZM5.48495 22.3289L3.33644 20.4004L12.7574 11.1564L14.7008 12.9948L5.48495 22.3289ZM8.58659 20.7232C8.77424 20.8785 8.97674 21.0116 9.19196 21.1224C9.02392 21.2952 8.85058 21.4749 8.67617 21.6551C8.46519 21.873 8.25951 22.0845 8.06073 22.2886L7.53751 21.7728L8.58659 20.7232ZM12.4982 28.1537L13.6125 29.2526L13.0649 29.8118L11.957 28.7039L12.4982 28.1537ZM14.9256 31.656L13.8182 30.5614L14.3711 30.0011L15.4832 31.0979L14.9256 31.656ZM16.2381 31.8426L17.3545 32.9437L16.7857 33.5125L15.6767 32.4035L16.2381 31.8426ZM18.6448 35.371L17.5358 34.262L18.1099 33.6879L19.2263 34.7895L18.6448 35.371ZM28.687 31.5755L28.4686 31.3571L26.3286 29.217C26.3286 29.217 26.3281 29.217 26.3281 29.2165L25.6776 28.5661C25.4704 28.3588 25.1353 28.3588 24.9281 28.5661C24.7208 28.7733 24.7208 29.1084 24.9281 29.3156L27.3448 31.7319L26.2358 32.8408L23.2259 29.8309C23.0186 29.6236 22.6836 29.6236 22.4764 29.8309C22.2691 30.0382 22.2691 30.3732 22.4764 30.5805L23.1278 31.232L24.8926 32.9972L23.7836 34.1062L22.0433 32.3664L21.4246 31.7478C21.4246 31.7478 21.4241 31.7478 21.4241 31.7472L20.7737 31.0968C20.5664 30.8895 20.2314 30.8895 20.0241 31.0968C19.8168 31.3041 19.8168 31.6391 20.0241 31.8464L21.2407 33.0629L22.4403 34.2626L21.3287 35.3742L8.81559 23.0329C9.0165 22.8266 9.22483 22.612 9.4374 22.392C9.74963 22.0697 10.0571 21.7521 10.3306 21.4744C10.4642 21.4903 10.5983 21.5003 10.7346 21.5003C12.5984 21.5003 14.114 19.9842 14.114 18.1209C14.114 17.9815 14.1034 17.8437 14.0864 17.7069L15.4546 16.3053L16.8896 17.7223L11.8854 22.6846C11.7778 22.7911 11.7211 22.9385 11.7296 23.0901C11.7381 23.2417 11.8101 23.3817 11.9289 23.476C12.0524 23.5752 14.9552 25.7735 19.9955 20.6654L29.796 30.4665L28.687 31.5755ZM27.4106 26.5824L20.3628 19.5342C20.2616 19.4329 20.1359 19.3767 19.9796 19.3789C19.8359 19.381 19.7002 19.4414 19.6016 19.5458C16.3499 23.0058 14.1718 23.1108 13.1895 22.8839L19.6748 16.4527L22.2177 16.7236L21.836 17.1233C21.6335 17.3348 21.6414 17.6703 21.8524 17.8728C22.0639 18.0748 22.399 18.0679 22.602 17.8559L25.649 14.6684L32.3363 21.3556L27.4106 26.5824ZM28.3377 11.3637C28.3377 12.2771 29.0809 13.0203 29.9943 13.0203C30.9076 13.0203 31.6508 12.2771 31.6508 11.3637C31.6508 10.4503 30.9076 9.70713 29.9943 9.70713C29.0809 9.70713 28.3377 10.4503 28.3377 11.3637ZM30.5906 11.3637C30.5906 11.6924 30.3229 11.9601 29.9943 11.9601C29.6656 11.9601 29.3979 11.6924 29.3979 11.3637C29.3979 11.035 29.6656 10.7673 29.9943 10.7673C30.3229 10.7673 30.5906 11.035 30.5906 11.3637Z" fill="#FC823E" stroke="#FC823E" stroke-width="0.3"/>
</g>
<defs>
<clipPath id="clip0">
<rect width="40" height="40" fill="white"/>
</clipPath>
</defs>
</svg>
